<svg xmlns="http://www.w3.org/2000/svg" xmlns:xlink="http://www.w3.org/1999/xlink" width="1920" zoomAndPan="magnify" viewBox="0 0 1440 809.999993" height="1080" preserveAspectRatio="xMidYMid meet" version="1.0"><defs><clipPath id="6de941018a"><path d="M 452 22.148438 L 1206 22.148438 L 1206 784 L 452 784 Z M 452 22.148438 " clip-rule="nonzero"/></clipPath></defs><g clip-path="url(#6de941018a)"><path fill="#000000" d="M 1192.144531 708.074219 L 1042.746094 567.007812 C 1088.652344 509.628906 1116.277344 437.113281 1116.277344 358 C 1116.277344 172.859375 965.5625 22.148438 780.417969 22.148438 C 619.136719 22.148438 484.265625 136.300781 452.070312 287.925781 C 474.109375 292.292969 494.21875 303.769531 509.453125 320.222656 C 527.734375 186.875 642.496094 84.300781 780.417969 84.300781 C 931.4375 84.300781 1054.222656 207.085938 1054.222656 358.101562 C 1054.222656 508.816406 931.4375 631.597656 780.417969 631.597656 C 741.621094 631.597656 704.753906 623.578125 671.238281 608.953125 C 680.886719 630.683594 682.714844 654.550781 677.128906 677.199219 C 709.730469 688.066406 744.464844 693.652344 780.417969 693.652344 C 859.53125 693.652344 932.046875 666.027344 989.429688 620.125 L 1130.800781 769.617188 C 1131.410156 770.226562 1132.019531 770.835938 1132.324219 771.445312 C 1149.996094 787.898438 1177.316406 787.289062 1193.769531 769.617188 C 1210.425781 752.148438 1209.511719 724.828125 1192.144531 708.074219 Z M 1192.144531 708.074219 " fill-opacity="1" fill-rule="nonzero"/></g><path fill="#000000" d="M 470.65625 371.8125 C 452.882812 339.417969 406.265625 339.417969 388.390625 371.8125 L 246.816406 629.261719 C 229.652344 660.542969 252.199219 698.832031 287.949219 698.832031 L 571.203125 698.832031 C 606.949219 698.832031 629.496094 660.542969 612.332031 629.261719 Z M 404.132812 447.066406 C 404.132812 432.953125 415.507812 421.578125 429.625 421.578125 C 443.742188 421.578125 455.117188 432.953125 455.117188 447.066406 L 455.117188 538.164062 C 455.117188 552.28125 443.742188 563.65625 429.625 563.65625 C 415.507812 563.65625 404.132812 552.28125 404.132812 538.164062 Z M 429.523438 646.628906 C 413.476562 646.628906 400.578125 633.628906 400.578125 617.6875 C 400.578125 601.640625 413.578125 588.742188 429.523438 588.742188 C 445.570312 588.742188 458.46875 601.742188 458.46875 617.6875 C 458.570312 633.730469 445.570312 646.628906 429.523438 646.628906 Z M 429.523438 646.628906 " fill-opacity="1" fill-rule="nonzero"/><path fill="#000000" d="M 707.902344 541.007812 C 729.230469 556.039062 754.316406 563.960938 780.417969 563.960938 C 806.519531 563.960938 831.601562 556.039062 852.929688 541.007812 C 894.367188 511.863281 919.453125 476.519531 925.953125 438.128906 C 948.296875 433.257812 959.164062 417.3125 959.164062 389.484375 C 959.164062 368.257812 954.1875 353.53125 944.03125 344.390625 C 939.867188 340.632812 933.0625 336.574219 923.109375 335.558594 C 923.210938 331.800781 923.210938 326.621094 923.109375 320.933594 L 958.25 320.933594 C 969.929688 320.933594 979.375 311.488281 979.375 299.808594 C 979.375 288.128906 969.929688 278.683594 958.25 278.683594 L 933.46875 278.683594 C 926.054688 278.683594 919.351562 274.011719 916.710938 267.003906 L 891.117188 198.046875 C 884.71875 180.78125 868.265625 169.304688 849.78125 169.304688 L 711.050781 169.304688 C 692.667969 169.304688 676.113281 180.78125 669.714844 198.046875 L 644.121094 266.902344 C 641.480469 273.910156 634.878906 278.582031 627.363281 278.582031 L 602.582031 278.582031 C 590.90625 278.582031 581.460938 288.027344 581.460938 299.707031 C 581.460938 311.386719 590.90625 320.832031 602.582031 320.832031 L 637.925781 320.832031 C 637.824219 326.621094 637.824219 331.800781 637.925781 335.457031 C 627.972656 336.371094 621.066406 340.429688 616.902344 344.289062 C 606.746094 353.429688 601.769531 368.15625 601.769531 389.382812 C 601.769531 417.109375 612.636719 433.15625 634.878906 438.027344 C 641.277344 476.417969 666.363281 511.863281 707.902344 541.007812 Z M 677.332031 320.832031 L 883.296875 320.832031 C 885.835938 330.683594 887.15625 340.125 887.96875 348.554688 C 855.46875 336.980469 817.28125 345.40625 805.605469 348.757812 C 793.824219 352.210938 785.394531 353.53125 785.394531 353.53125 C 781.941406 354.039062 778.488281 354.039062 775.035156 353.53125 C 775.035156 353.53125 766.707031 352.210938 754.824219 348.757812 C 743.144531 345.40625 705.058594 336.980469 672.558594 348.554688 C 673.472656 340.125 674.792969 330.683594 677.332031 320.832031 Z M 660.066406 428.28125 C 659.355469 420.15625 652.957031 413.757812 645.035156 413.046875 C 635.183594 412.03125 628.074219 411.320312 628.074219 389.382812 C 628.074219 372.21875 632.136719 366.023438 634.472656 363.789062 C 635.183594 363.179688 637.214844 361.554688 642.089844 361.554688 C 642.800781 369.679688 643.714844 377.195312 644.832031 381.460938 C 646.863281 389.585938 666.160156 389.6875 670.324219 383.492188 C 675.402344 400.554688 684.136719 422.898438 715.011719 422.898438 C 758.277344 422.898438 767.113281 394.96875 767.113281 382.679688 C 767.113281 381.054688 767.214844 379.632812 767.519531 378.3125 C 768.738281 372.21875 774.222656 367.851562 780.417969 367.851562 C 786.613281 367.851562 792.199219 372.21875 793.316406 378.3125 C 793.621094 379.632812 793.722656 381.054688 793.722656 382.679688 C 793.722656 394.96875 802.660156 422.898438 845.820312 422.898438 C 876.695312 422.898438 885.429688 400.554688 890.507812 383.492188 C 894.671875 389.6875 913.96875 389.6875 916 381.460938 C 917.015625 377.195312 917.929688 369.679688 918.742188 361.554688 C 923.617188 361.554688 925.648438 363.179688 926.359375 363.789062 C 928.796875 365.921875 932.757812 372.117188 932.757812 389.382812 C 932.757812 411.21875 925.648438 412.03125 915.898438 412.945312 C 907.773438 413.65625 901.375 420.054688 900.664062 427.976562 C 900.359375 430.820312 899.242188 433.5625 898.632812 436.40625 C 820.328125 449.300781 740.503906 449.300781 662.097656 436.503906 C 661.589844 433.765625 660.371094 431.125 660.066406 428.28125 Z M 660.066406 428.28125 " fill-opacity="1" fill-rule="nonzero"/></svg>
