<svg xmlns="http://www.w3.org/2000/svg" xmlns:xlink="http://www.w3.org/1999/xlink" width="1920" zoomAndPan="magnify" viewBox="0 0 1440 809.999993" height="1080" preserveAspectRatio="xMidYMid meet" version="1.0"><defs><clipPath id="6bfe2b555b"><path d="M 661 119 L 1086.285156 119 L 1086.285156 455 L 661 455 Z M 661 119 " clip-rule="nonzero"/></clipPath><clipPath id="4e59fa1d01"><path d="M 497 38.535156 L 909 38.535156 L 909 414 L 497 414 Z M 497 38.535156 " clip-rule="nonzero"/></clipPath><clipPath id="aefd745503"><path d="M 386 484 L 866 484 L 866 771.285156 L 386 771.285156 Z M 386 484 " clip-rule="nonzero"/></clipPath><clipPath id="cf6e53ce07"><path d="M 353.535156 131 L 684 131 L 684 579 L 353.535156 579 Z M 353.535156 131 " clip-rule="nonzero"/></clipPath></defs><g clip-path="url(#6bfe2b555b)"><path fill="#000000" d="M 949.609375 119.5625 C 934.710938 119.457031 919.78125 120.113281 904.761719 121.714844 C 849.742188 127.746094 797.902344 145.011719 750.699219 173.023438 C 717.222656 192.71875 687.46875 217.476562 661.535156 246.316406 C 679.820312 239.414062 699.558594 235.460938 720.246094 235.460938 C 720.289062 235.460938 720.351562 235.460938 720.398438 235.460938 L 720.398438 235.367188 C 755.660156 235.71875 790.695312 240.542969 824.570312 249.703125 C 874.03125 262.863281 919.964844 284.785156 961.015625 314.855469 C 1008.917969 349.554688 1048.210938 393.550781 1077.75 445.578125 C 1079.507812 448.691406 1081.109375 451.851562 1082.773438 454.996094 C 1085.03125 438.601562 1086.285156 421.898438 1086.285156 404.910156 C 1086.285156 289.5625 1032.929688 186.71875 949.609375 119.5625 Z M 949.609375 119.5625 " fill-opacity="1" fill-rule="nonzero"/></g><g clip-path="url(#4e59fa1d01)"><path fill="#000000" d="M 504.128906 145.257812 C 494.128906 199.691406 495.792969 254.3125 509.089844 307.558594 C 518.355469 345.265625 533.546875 380.851562 553.742188 413.960938 C 553.484375 410.160156 553.164062 406.390625 553.164062 402.527344 C 553.164062 378.957031 558.125 356.53125 566.976562 336.183594 L 566.839844 336.121094 C 581.054688 304.035156 599.355469 273.777344 621.277344 246.175781 C 652.96875 205.996094 691.300781 172.519531 735.160156 146.722656 C 786.085938 116.496094 842.066406 97.855469 901.464844 91.351562 C 903.8125 91.09375 906.148438 90.988281 908.484375 90.773438 C 853.40625 57.632812 788.894531 38.535156 719.910156 38.535156 C 644.054688 38.535156 573.589844 61.585938 515.136719 101.0625 C 510.664062 115.503906 506.9375 130.1875 504.128906 145.257812 Z M 504.128906 145.257812 " fill-opacity="1" fill-rule="nonzero"/></g><path fill="#000000" d="M 1051.203125 460.613281 C 1023.847656 412.449219 987.4375 371.707031 943.046875 339.527344 C 911.691406 316.566406 877.175781 299.074219 840.371094 286.691406 C 858.671875 305.667969 872.535156 328.902344 880.289062 354.777344 L 880.425781 354.746094 C 890.195312 388.558594 895.617188 423.53125 896.5625 458.660156 C 898.136719 509.859375 890.304688 560.144531 873.296875 608.0625 C 853.757812 663.921875 822.875 714.191406 781.535156 757.390625 C 778.148438 760.902344 774.667969 764.277344 771.1875 767.652344 C 915.949219 747.363281 1033.527344 642.503906 1072.4375 504.59375 C 1066.285156 489.617188 1059.277344 474.949219 1051.203125 460.613281 Z M 1051.203125 460.613281 " fill-opacity="1" fill-rule="nonzero"/><g clip-path="url(#aefd745503)"><path fill="#000000" d="M 720.367188 771.269531 C 734.03125 760.429688 747.234375 748.996094 759.492188 736.25 C 797.761719 696.253906 826.371094 649.695312 844.476562 597.914062 C 857.46875 561.367188 864.320312 523.324219 865.648438 484.550781 C 852.519531 507.738281 834.035156 527.492188 811.855469 542.117188 L 811.960938 542.285156 C 782.375 561.335938 750.457031 576.554688 717.039062 587.53125 C 675.027344 601.53125 631.628906 608.597656 587.800781 608.597656 C 580.960938 608.597656 574.105469 608.429688 567.238281 608.078125 C 508.128906 605.378906 451.128906 590.203125 397.851562 563 C 393.851562 560.9375 390.203125 558.496094 386.277344 556.328125 C 443.9375 683.09375 571.574219 771.285156 719.910156 771.285156 C 720.0625 771.285156 720.214844 771.269531 720.367188 771.269531 Z M 720.367188 771.269531 " fill-opacity="1" fill-rule="nonzero"/></g><g clip-path="url(#cf6e53ce07)"><path fill="#000000" d="M 379.898438 517.417969 L 384.78125 518.667969 L 384.355469 519.996094 C 393.300781 525.539062 402.339844 530.957031 411.816406 535.84375 C 461.125 561.015625 513.929688 575.074219 568.71875 577.578125 C 607.417969 579.53125 645.855469 575.210938 683.332031 565.367188 C 656.921875 559.382812 632.847656 547.183594 612.820312 530.300781 L 612.667969 530.46875 C 585.984375 507.632812 562.230469 481.40625 542.109375 452.507812 C 512.695312 410.632812 491.613281 364.316406 479.476562 314.902344 C 465.125 257.457031 463.308594 198.503906 474.101562 139.699219 C 474.589844 137.042969 475.214844 134.433594 475.765625 131.792969 C 400.78125 198.882812 353.535156 296.371094 353.535156 404.910156 C 353.535156 441.453125 358.953125 476.734375 368.921875 510.042969 C 372.554688 512.515625 376.15625 515.035156 379.898438 517.417969 Z M 379.898438 517.417969 " fill-opacity="1" fill-rule="nonzero"/></g></svg>
