<svg xmlns="http://www.w3.org/2000/svg" xmlns:xlink="http://www.w3.org/1999/xlink" width="1920" zoomAndPan="magnify" viewBox="0 0 1440 809.999993" height="1080" preserveAspectRatio="xMidYMid meet" version="1.0"><defs><clipPath id="1becffafd0"><path d="M 200.261719 31.4375 L 1239.761719 31.4375 L 1239.761719 682 L 200.261719 682 Z M 200.261719 31.4375 " clip-rule="nonzero"/></clipPath><clipPath id="886a44fd0e"><path d="M 841 745 L 972 745 L 972 778.4375 L 841 778.4375 Z M 841 745 " clip-rule="nonzero"/></clipPath><clipPath id="1ac712e608"><path d="M 468 745 L 599 745 L 599 778.4375 L 468 778.4375 Z M 468 745 " clip-rule="nonzero"/></clipPath></defs><path fill="#000000" d="M 695.648438 648.523438 L 744.375 648.523438 L 744.375 681.003906 L 695.648438 681.003906 Z M 695.648438 648.523438 " fill-opacity="1" fill-rule="nonzero"/><g clip-path="url(#1becffafd0)"><path fill="#000000" d="M 1069.214844 338.355469 L 1050.535156 338.355469 C 1048.097656 229.554688 958.769531 141.863281 849.945312 141.863281 C 824.769531 141.863281 800.410156 146.734375 776.859375 155.667969 C 733.816406 79.34375 653.417969 31.4375 565.710938 31.4375 C 432.527344 31.4375 324.515625 140.238281 324.515625 273.398438 C 324.515625 296.945312 327.765625 320.492188 334.261719 342.417969 C 257.113281 358.65625 200.265625 427.671875 200.265625 509.679688 C 200.265625 603.867188 276.601562 681.003906 370.804688 681.003906 L 370.804688 648.523438 C 294.46875 648.523438 232.75 586.003906 232.75 509.679688 C 232.75 438.226562 285.535156 378.953125 356.1875 371.648438 C 361.0625 376.519531 366.746094 381.390625 374.054688 385.449219 C 376.492188 387.074219 379.738281 387.886719 382.988281 387.886719 C 388.671875 387.886719 393.546875 385.449219 396.792969 380.578125 C 401.667969 373.269531 399.230469 362.714844 391.921875 357.84375 C 378.925781 349.722656 370.804688 337.542969 366.746094 331.050781 C 366.746094 330.238281 365.933594 330.238281 365.933594 329.425781 C 361.0625 310.75 357.8125 292.074219 357.8125 272.589844 C 357 158.101562 450.390625 63.914062 565.710938 63.914062 C 646.109375 63.914062 720.011719 111.007812 754.117188 184.085938 C 755.742188 188.144531 758.992188 191.390625 763.050781 192.203125 C 767.113281 193.828125 771.984375 193.015625 775.234375 191.390625 C 797.972656 180.023438 823.148438 174.339844 849.132812 174.339844 C 941.714844 174.339844 1017.238281 249.851562 1017.238281 343.226562 C 1017.238281 346.476562 1017.238281 350.535156 1017.238281 353.785156 C 1017.238281 358.65625 1018.863281 362.714844 1021.300781 365.964844 C 1023.738281 369.210938 1028.609375 370.835938 1033.480469 370.835938 L 1069.214844 370.835938 C 1145.550781 370.835938 1207.273438 433.355469 1207.273438 509.679688 C 1207.273438 586.003906 1145.550781 648.523438 1069.214844 648.523438 L 1069.214844 681.003906 C 1163.417969 681.003906 1239.753906 603.867188 1239.753906 509.679688 C 1239.753906 415.492188 1163.417969 338.355469 1069.214844 338.355469 Z M 1069.214844 338.355469 " fill-opacity="1" fill-rule="nonzero"/></g><path fill="#000000" d="M 630.679688 551.089844 L 435.773438 551.089844 C 417.910156 551.089844 403.289062 565.703125 403.289062 583.566406 L 403.289062 697.242188 C 403.289062 715.105469 417.910156 729.71875 435.773438 729.71875 L 630.679688 729.71875 C 648.546875 729.71875 663.164062 715.105469 663.164062 697.242188 L 663.164062 583.566406 C 663.164062 565.703125 648.546875 551.089844 630.679688 551.089844 Z M 435.773438 697.242188 L 435.773438 583.566406 L 630.679688 583.566406 L 630.679688 697.242188 Z M 435.773438 697.242188 " fill-opacity="1" fill-rule="nonzero"/><g clip-path="url(#886a44fd0e)"><path fill="#000000" d="M 955.519531 745.957031 L 858.066406 745.957031 C 849.132812 745.957031 841.824219 753.265625 841.824219 762.199219 C 841.824219 771.128906 849.132812 778.4375 858.066406 778.4375 L 955.519531 778.4375 C 964.453125 778.4375 971.761719 771.128906 971.761719 762.199219 C 971.761719 753.265625 964.453125 745.957031 955.519531 745.957031 Z M 955.519531 745.957031 " fill-opacity="1" fill-rule="nonzero"/></g><path fill="#000000" d="M 1004.246094 551.089844 L 809.339844 551.089844 C 791.476562 551.089844 776.859375 565.703125 776.859375 583.566406 L 776.859375 697.242188 C 776.859375 715.105469 791.476562 729.71875 809.339844 729.71875 L 1004.246094 729.71875 C 1022.113281 729.71875 1036.730469 715.105469 1036.730469 697.242188 L 1036.730469 583.566406 C 1036.730469 565.703125 1022.113281 551.089844 1004.246094 551.089844 Z M 809.339844 697.242188 L 809.339844 583.566406 L 1004.246094 583.566406 L 1004.246094 697.242188 Z M 809.339844 697.242188 " fill-opacity="1" fill-rule="nonzero"/><path fill="#000000" d="M 817.460938 469.894531 C 835.328125 469.894531 849.945312 455.277344 849.945312 437.414062 L 849.945312 323.742188 C 849.945312 305.878906 835.328125 291.261719 817.460938 291.261719 L 622.558594 291.261719 C 604.691406 291.261719 590.074219 305.878906 590.074219 323.742188 L 590.074219 437.414062 C 590.074219 455.277344 604.691406 469.894531 622.558594 469.894531 Z M 622.558594 323.742188 L 817.460938 323.742188 L 817.460938 437.414062 L 622.558594 437.414062 Z M 622.558594 323.742188 " fill-opacity="1" fill-rule="nonzero"/><path fill="#000000" d="M 784.976562 502.371094 C 784.976562 493.441406 777.667969 486.132812 768.738281 486.132812 L 671.285156 486.132812 C 662.351562 486.132812 655.042969 493.441406 655.042969 502.371094 C 655.042969 511.304688 662.351562 518.609375 671.285156 518.609375 L 768.738281 518.609375 C 777.667969 518.609375 784.976562 511.304688 784.976562 502.371094 Z M 784.976562 502.371094 " fill-opacity="1" fill-rule="nonzero"/><path fill="#000000" d="M 419.53125 496.6875 C 419.53125 499.9375 419.53125 502.371094 419.53125 502.371094 C 419.53125 511.304688 426.839844 518.609375 435.773438 518.609375 C 444.707031 518.609375 452.015625 511.304688 452.015625 502.371094 C 452.015625 502.371094 452.015625 500.746094 452.015625 499.9375 C 452.828125 491.003906 446.332031 482.882812 437.398438 482.074219 C 428.464844 481.261719 420.34375 487.757812 419.53125 496.6875 Z M 419.53125 496.6875 " fill-opacity="1" fill-rule="nonzero"/><path fill="#000000" d="M 481.253906 429.296875 C 484.5 429.296875 488.5625 428.484375 490.996094 426.046875 C 492.621094 424.425781 494.246094 423.613281 496.683594 421.988281 C 503.992188 417.117188 505.617188 406.5625 500.742188 399.253906 C 495.871094 391.945312 485.3125 390.320312 478.003906 395.195312 C 475.566406 396.816406 473.132812 398.441406 470.695312 400.066406 C 463.386719 405.75 462.574219 415.492188 468.257812 422.800781 C 471.507812 427.671875 476.378906 429.296875 481.253906 429.296875 Z M 481.253906 429.296875 " fill-opacity="1" fill-rule="nonzero"/><path fill="#000000" d="M 460.136719 433.355469 C 452.015625 429.296875 442.269531 431.730469 438.210938 439.851562 C 436.585938 442.285156 435.773438 444.722656 434.148438 447.160156 C 430.089844 455.277344 433.339844 465.023438 441.460938 469.082031 C 443.894531 469.894531 446.332031 470.707031 448.769531 470.707031 C 454.453125 470.707031 460.949219 467.457031 463.386719 461.773438 C 464.199219 460.148438 465.011719 457.714844 466.632812 456.089844 C 470.695312 447.96875 467.445312 438.226562 460.136719 433.355469 Z M 460.136719 433.355469 " fill-opacity="1" fill-rule="nonzero"/><path fill="#000000" d="M 529.167969 405.75 C 530.789062 405.75 532.414062 405.75 533.226562 404.9375 C 534.039062 404.9375 535.664062 404.125 536.476562 404.125 C 545.410156 401.6875 550.28125 392.757812 547.84375 384.636719 C 545.410156 375.707031 536.476562 370.835938 528.355469 373.269531 C 526.730469 373.269531 525.105469 374.082031 524.292969 374.082031 C 515.359375 376.519531 510.488281 385.449219 512.925781 394.382812 C 515.359375 401.6875 521.855469 405.75 529.167969 405.75 Z M 529.167969 405.75 " fill-opacity="1" fill-rule="nonzero"/><path fill="#000000" d="M 979.882812 499.9375 C 979.882812 501.558594 979.882812 502.371094 979.882812 502.371094 C 979.882812 511.304688 987.191406 518.609375 996.125 518.609375 C 1005.058594 518.609375 1012.367188 511.304688 1012.367188 502.371094 C 1012.367188 502.371094 1012.367188 500.746094 1012.367188 496.6875 C 1011.554688 487.757812 1004.246094 481.261719 994.5 482.074219 C 985.566406 482.882812 979.070312 491.003906 979.882812 499.9375 Z M 979.882812 499.9375 " fill-opacity="1" fill-rule="nonzero"/><path fill="#000000" d="M 994.5 439.851562 C 990.441406 431.730469 979.882812 429.296875 972.574219 433.355469 C 964.453125 437.414062 962.015625 447.96875 966.078125 455.277344 C 966.890625 456.902344 968.511719 459.339844 969.324219 460.960938 C 971.761719 466.644531 978.257812 469.894531 983.945312 469.894531 C 986.378906 469.894531 988.816406 469.082031 991.253906 468.269531 C 999.375 464.210938 1002.621094 454.464844 998.5625 446.347656 C 996.9375 444.722656 996.125 442.285156 994.5 439.851562 Z M 994.5 439.851562 " fill-opacity="1" fill-rule="nonzero"/><path fill="#000000" d="M 960.390625 400.066406 C 957.957031 398.441406 955.519531 396.816406 953.082031 395.195312 C 945.773438 390.320312 935.21875 391.945312 930.34375 399.253906 C 925.472656 406.5625 927.097656 417.117188 934.40625 421.988281 C 936.03125 423.613281 937.652344 424.425781 940.089844 426.046875 C 943.339844 428.484375 946.585938 429.296875 949.835938 429.296875 C 954.707031 429.296875 959.582031 426.859375 962.828125 422.800781 C 968.511719 416.304688 967.703125 405.75 960.390625 400.066406 Z M 960.390625 400.066406 " fill-opacity="1" fill-rule="nonzero"/><path fill="#000000" d="M 897.859375 405.75 C 899.484375 406.5625 901.109375 406.5625 901.921875 406.5625 C 909.230469 406.5625 915.726562 401.6875 917.351562 394.382812 C 919.789062 385.449219 914.914062 376.519531 905.980469 374.082031 C 904.359375 374.082031 902.734375 373.269531 901.921875 373.269531 C 892.988281 370.835938 884.054688 376.519531 882.429688 384.636719 C 879.996094 393.570312 885.679688 402.5 893.800781 404.125 C 895.425781 404.9375 897.046875 404.9375 897.859375 405.75 Z M 897.859375 405.75 " fill-opacity="1" fill-rule="nonzero"/><g clip-path="url(#1ac712e608)"><path fill="#000000" d="M 581.953125 745.957031 L 484.5 745.957031 C 475.566406 745.957031 468.257812 753.265625 468.257812 762.199219 C 468.257812 771.128906 475.566406 778.4375 484.5 778.4375 L 581.953125 778.4375 C 590.886719 778.4375 598.195312 771.128906 598.195312 762.199219 C 598.195312 753.265625 590.886719 745.957031 581.953125 745.957031 Z M 581.953125 745.957031 " fill-opacity="1" fill-rule="nonzero"/></g></svg>
