<svg xmlns="http://www.w3.org/2000/svg" xmlns:xlink="http://www.w3.org/1999/xlink" width="1920" zoomAndPan="magnify" viewBox="0 0 1440 809.999993" height="1080" preserveAspectRatio="xMidYMid meet" version="1.0"><defs><clipPath id="04b9a437db"><path d="M 401.039062 43 L 1036 43 L 1036 768 L 401.039062 768 Z M 401.039062 43 " clip-rule="nonzero"/></clipPath></defs><g clip-path="url(#04b9a437db)"><path fill="#100f0d" d="M 948.746094 409.246094 C 912.890625 530.792969 842.261719 627.234375 738.933594 695.871094 C 723.875 705.890625 713.738281 706.488281 698.832031 698.195312 C 563.359375 623.070312 486.949219 503.925781 465.285156 333.972656 C 460.140625 293.40625 458.414062 251.789062 460.101562 206.757812 C 460.289062 201.578125 464.195312 197.300781 469.339844 196.589844 C 518.789062 189.871094 571.242188 181.503906 621.183594 159.625 C 652.273438 146.003906 682.046875 129.378906 709.683594 110.203125 C 715.050781 106.488281 718.128906 104.800781 720.796875 104.800781 C 722.636719 104.800781 724.289062 105.625 726.351562 107.203125 C 761.875 134.109375 801.296875 155.347656 843.5 170.320312 C 882.851562 184.242188 926.070312 193.25 971.953125 197.039062 L 972.066406 197.039062 C 975.105469 197.300781 977.472656 199.851562 977.507812 203.003906 C 978.523438 271.828125 968.835938 341.175781 948.746094 409.246094 Z M 1035.519531 199.367188 C 1035.21875 187.769531 1034.433594 175.5 1028.949219 164.652344 C 1022.605469 152.082031 1011.679688 143.488281 995.496094 138.421875 C 982.464844 134.371094 968.011719 133.207031 955.242188 132.15625 L 955.054688 132.15625 C 893.363281 127.242188 833.289062 105.8125 781.246094 70.203125 C 779.632812 69.113281 777.980469 67.988281 776.367188 66.863281 C 760.445312 55.792969 743.964844 44.382812 723.914062 43.40625 C 701.382812 42.320312 681.519531 55.191406 663.988281 66.5625 C 662.558594 67.5 661.09375 68.4375 659.667969 69.375 C 619.191406 95.382812 575.035156 114.183594 528.402344 125.214844 C 507.902344 130.054688 485.898438 133.320312 459.164062 135.496094 C 433.855469 137.523438 416.097656 149.007812 407.800781 168.632812 C 402.015625 182.328125 401.226562 197.039062 400.890625 212.160156 C 400.664062 223.71875 400.589844 235.277344 400.738281 246.535156 C 402.316406 376.601562 429.613281 486.402344 481.878906 572.933594 C 502.53125 607.160156 528.25 639.46875 558.328125 668.964844 C 586.449219 696.546875 618.441406 721.761719 653.472656 743.976562 C 672.886719 756.285156 693.988281 767.582031 716.816406 767.582031 C 718.128906 767.582031 719.445312 767.542969 720.796875 767.46875 C 740.847656 766.304688 758.71875 756.285156 775.089844 745.628906 C 817.40625 718.085938 856.191406 683.488281 890.398438 642.769531 C 923.816406 602.957031 952.089844 558.261719 974.394531 509.890625 C 1017.460938 416.453125 1038.636719 309.089844 1035.519531 199.367188 " fill-opacity="1" fill-rule="nonzero"/></g><path fill="#100f0d" d="M 818.007812 508.203125 C 818.007812 520.886719 807.679688 531.167969 794.992188 531.167969 L 623.132812 531.167969 C 610.445312 531.167969 600.15625 520.886719 600.15625 508.203125 L 600.15625 391.234375 C 600.15625 378.550781 610.445312 368.269531 623.132812 368.269531 L 794.992188 368.269531 C 807.679688 368.269531 818.007812 378.550781 818.007812 391.234375 Z M 813.726562 351.644531 L 604.398438 351.644531 C 591.707031 351.644531 581.417969 361.925781 581.417969 374.613281 L 581.417969 524.828125 C 581.417969 537.511719 591.707031 547.792969 604.398438 547.792969 L 813.726562 547.792969 C 826.457031 547.792969 836.742188 537.511719 836.742188 524.828125 L 836.742188 374.613281 C 836.742188 361.925781 826.457031 351.644531 813.726562 351.644531 " fill-opacity="1" fill-rule="nonzero"/><path fill="#100f0d" d="M 721.398438 455.105469 L 721.398438 477.46875 C 721.398438 483.324219 716.589844 488.128906 710.734375 488.128906 L 707.390625 488.128906 C 701.535156 488.128906 696.726562 483.324219 696.726562 477.46875 L 696.726562 455.105469 C 689.933594 450.9375 685.425781 443.472656 685.425781 434.914062 C 685.425781 421.855469 696.015625 411.273438 709.042969 411.273438 C 722.148438 411.273438 732.738281 421.855469 732.738281 434.914062 C 732.738281 443.472656 728.191406 450.9375 721.398438 455.105469 Z M 779.445312 383.203125 L 638.679688 383.203125 C 626.402344 383.203125 616.453125 393.148438 616.453125 405.421875 L 616.453125 494.019531 C 616.453125 506.289062 626.402344 516.234375 638.679688 516.234375 L 779.445312 516.234375 C 791.722656 516.234375 801.675781 506.289062 801.675781 494.019531 L 801.675781 405.421875 C 801.675781 393.148438 791.722656 383.203125 779.445312 383.203125 " fill-opacity="1" fill-rule="nonzero"/><path fill="#100f0d" d="M 653.4375 332.996094 C 653.4375 331.382812 653.4375 329.769531 653.472656 328.15625 C 653.734375 315.246094 652.910156 282.636719 654.523438 269.914062 C 657.828125 244.097656 682.195312 221.46875 713.550781 223.871094 C 741.410156 226.007812 763.1875 248.636719 764.5 275.917969 C 765.066406 287.738281 764.6875 319.1875 764.726562 331.007812 C 764.726562 331.683594 764.726562 332.320312 764.726562 332.996094 L 802.460938 332.996094 C 802.5 324.890625 802.574219 297.046875 802.425781 288.789062 C 802.238281 280.570312 802.574219 272.203125 801.222656 264.136719 C 792.398438 210.847656 740.695312 176.289062 688.128906 188.21875 C 647.464844 197.453125 617.390625 233.4375 615.851562 275.09375 C 615.398438 287.851562 615.738281 320.238281 615.738281 332.996094 L 653.4375 332.996094 " fill-opacity="1" fill-rule="nonzero"/></svg>
