<svg xmlns="http://www.w3.org/2000/svg" xmlns:xlink="http://www.w3.org/1999/xlink" width="1920" zoomAndPan="magnify" viewBox="0 0 1440 809.999993" height="1080" preserveAspectRatio="xMidYMid meet" version="1.0"><defs><clipPath id="3cdc4ffd17"><path d="M 889 377 L 1091.933594 377 L 1091.933594 433 L 889 433 Z M 889 377 " clip-rule="nonzero"/></clipPath><clipPath id="f7c525817f"><path d="M 347.933594 377 L 551 377 L 551 433 L 347.933594 433 Z M 347.933594 377 " clip-rule="nonzero"/></clipPath><clipPath id="141808ad83"><path d="M 692 21.921875 L 748 21.921875 L 748 232 L 692 232 Z M 692 21.921875 " clip-rule="nonzero"/></clipPath><clipPath id="0d41237557"><path d="M 692 578 L 748 578 L 748 788.421875 L 692 788.421875 Z M 692 578 " clip-rule="nonzero"/></clipPath></defs><path fill="#231f20" d="M 825.738281 567.136719 C 854.785156 567.136719 878.421875 543.488281 878.421875 514.417969 L 878.421875 295.121094 C 878.421875 266.050781 854.785156 242.398438 825.738281 242.398438 L 614.832031 242.398438 C 585.78125 242.398438 562.144531 266.050781 562.144531 295.121094 L 562.144531 514.417969 C 562.144531 543.488281 585.78125 567.136719 614.832031 567.136719 Z M 654.8125 414.019531 C 668 414.019531 678.664062 403.292969 678.664062 390.15625 C 678.664062 377.015625 667.945312 366.289062 654.8125 366.289062 C 650.257812 366.289062 645.917969 367.574219 642.113281 369.988281 L 620.671875 348.535156 L 584.871094 348.535156 L 584.871094 316.304688 L 655.941406 316.304688 L 663.390625 323.757812 C 661.03125 327.511719 659.796875 331.859375 659.796875 336.308594 C 659.796875 349.503906 670.519531 360.175781 683.648438 360.175781 C 696.78125 360.175781 707.5 349.449219 707.5 336.308594 C 707.5 323.167969 696.78125 312.441406 683.648438 312.441406 C 680.488281 312.441406 677.433594 313.03125 674.589844 314.210938 L 661.996094 301.609375 L 584.871094 301.609375 L 584.871094 295.171875 C 584.871094 278.65625 598.320312 265.195312 614.832031 265.195312 L 761.847656 265.195312 L 761.847656 323.867188 L 748.074219 337.648438 C 744.214844 335.183594 739.820312 333.84375 735.210938 333.84375 C 722.023438 333.84375 711.359375 344.566406 711.359375 357.707031 C 711.359375 370.847656 722.078125 381.574219 735.210938 381.574219 C 748.339844 381.574219 759.0625 370.847656 759.0625 357.707031 C 759.0625 354.703125 758.523438 351.753906 757.398438 349.019531 L 776.480469 329.925781 L 776.480469 265.140625 L 818.339844 265.140625 L 818.339844 311.746094 C 808.640625 314.910156 801.777344 324.132812 801.777344 334.484375 C 801.777344 347.679688 812.496094 358.351562 825.628906 358.351562 C 838.761719 358.351562 849.480469 347.625 849.480469 334.484375 C 849.480469 324.132812 842.621094 314.910156 832.917969 311.746094 L 832.917969 266.050781 C 846.050781 269.375 855.589844 281.390625 855.589844 295.121094 L 855.589844 392.621094 L 830.828125 392.621094 L 795.292969 428.179688 L 767.421875 428.179688 C 764.6875 417.773438 755.308594 410.425781 744.375 410.425781 C 731.191406 410.425781 720.523438 421.152344 720.523438 434.292969 C 720.523438 447.488281 731.242188 458.160156 744.375 458.160156 C 754.289062 458.160156 763.132812 451.9375 766.671875 442.820312 L 801.402344 442.820312 L 836.9375 407.261719 L 855.589844 407.261719 L 855.589844 447.753906 L 830.828125 447.753906 L 816.089844 462.503906 C 813.625 461.644531 811.050781 461.269531 808.476562 461.269531 C 795.292969 461.269531 784.628906 471.996094 784.628906 485.136719 C 784.628906 498.328125 795.347656 509.003906 808.476562 509.003906 C 821.664062 509.003906 832.328125 498.277344 832.328125 485.136719 C 832.328125 480.203125 830.773438 475.375 827.933594 471.40625 L 836.886719 462.449219 L 855.535156 462.449219 L 855.535156 514.417969 C 855.535156 530.9375 842.082031 544.398438 825.574219 544.398438 L 678.664062 544.398438 L 678.664062 520.585938 C 688.367188 517.421875 695.226562 508.199219 695.226562 497.847656 C 695.226562 484.652344 684.507812 473.980469 671.375 473.980469 C 658.246094 473.980469 647.523438 484.707031 647.523438 497.847656 C 647.523438 508.199219 654.386719 517.421875 664.085938 520.585938 L 664.085938 544.398438 L 630.425781 544.398438 L 630.425781 477.628906 C 640.824219 474.945312 648.4375 465.398438 648.4375 454.457031 C 648.4375 441.265625 637.714844 430.59375 624.585938 430.59375 C 611.453125 430.59375 600.734375 441.320312 600.734375 454.457031 C 600.734375 464.21875 606.84375 473.070312 615.847656 476.664062 L 615.847656 544.398438 L 614.882812 544.398438 C 598.375 544.398438 584.921875 530.9375 584.921875 514.417969 L 584.921875 363.179688 L 614.617188 363.179688 L 632.730469 381.304688 C 631.605469 384.148438 631.015625 387.097656 631.015625 390.207031 C 630.964844 403.292969 641.628906 414.019531 654.8125 414.019531 Z M 654.8125 380.929688 C 659.90625 380.929688 664.03125 385.058594 664.03125 390.15625 C 664.03125 395.25 659.90625 399.378906 654.8125 399.378906 C 649.722656 399.378906 645.59375 395.25 645.59375 390.15625 C 645.59375 385.058594 649.722656 380.929688 654.8125 380.929688 Z M 683.648438 327.085938 C 688.742188 327.085938 692.867188 331.214844 692.867188 336.308594 C 692.867188 341.402344 688.742188 345.535156 683.648438 345.535156 C 678.558594 345.535156 674.429688 341.402344 674.429688 336.308594 C 674.429688 334.808594 674.804688 333.304688 675.554688 331.964844 L 679.308594 328.210938 C 680.648438 327.460938 682.148438 327.085938 683.648438 327.085938 Z M 735.210938 366.878906 C 730.117188 366.878906 725.992188 362.75 725.992188 357.652344 C 725.992188 352.558594 730.117188 348.429688 735.210938 348.429688 C 737.03125 348.429688 738.800781 348.964844 740.300781 349.984375 L 742.875 352.558594 C 743.894531 354.0625 744.429688 355.832031 744.429688 357.652344 C 744.429688 362.75 740.300781 366.878906 735.210938 366.878906 Z M 825.738281 343.65625 C 820.644531 343.65625 816.519531 339.527344 816.519531 334.433594 C 816.519531 329.335938 820.644531 325.207031 825.738281 325.207031 C 830.828125 325.207031 834.957031 329.335938 834.957031 334.433594 C 834.957031 339.527344 830.773438 343.65625 825.738281 343.65625 Z M 753.703125 434.292969 C 753.703125 439.386719 749.574219 443.519531 744.484375 443.519531 C 739.390625 443.519531 735.265625 439.386719 735.265625 434.292969 C 735.265625 429.199219 739.390625 425.070312 744.484375 425.070312 C 749.519531 425.070312 753.703125 429.199219 753.703125 434.292969 Z M 808.53125 494.359375 C 803.441406 494.359375 799.3125 490.230469 799.3125 485.136719 C 799.3125 480.042969 803.441406 475.910156 808.53125 475.910156 C 810.140625 475.910156 811.746094 476.339844 813.195312 477.199219 L 816.519531 480.523438 C 817.320312 481.917969 817.75 483.527344 817.75 485.136719 C 817.75 490.230469 813.625 494.359375 808.53125 494.359375 Z M 671.375 488.621094 C 676.46875 488.621094 680.59375 492.75 680.59375 497.847656 C 680.59375 502.941406 676.46875 507.070312 671.375 507.070312 C 666.285156 507.070312 662.15625 502.941406 662.15625 497.847656 C 662.15625 492.75 666.285156 488.621094 671.375 488.621094 Z M 624.585938 445.289062 C 629.675781 445.289062 633.804688 449.417969 633.804688 454.511719 C 633.804688 458.804688 630.855469 462.503906 626.675781 463.46875 L 622.496094 463.46875 C 618.367188 462.503906 615.367188 458.75 615.367188 454.511719 C 615.367188 449.417969 619.492188 445.289062 624.585938 445.289062 Z M 624.585938 445.289062 " fill-opacity="1" fill-rule="nonzero"/><path fill="#231f20" d="M 979.613281 536.246094 C 975.648438 536.246094 971.683594 537.105469 968.089844 538.820312 L 934.859375 505.570312 L 889.515625 505.570312 L 889.515625 514.472656 C 889.515625 516.402344 889.410156 518.441406 889.25 520.425781 L 888.980469 523.375 L 927.519531 523.375 L 955.335938 551.210938 C 953.351562 555.070312 952.332031 559.308594 952.332031 563.652344 C 952.332031 578.722656 964.609375 591.003906 979.667969 591.003906 C 994.730469 591.003906 1007.003906 578.722656 1007.003906 563.652344 C 1007.003906 548.582031 994.675781 536.246094 979.613281 536.246094 Z M 989.15625 563.546875 C 989.15625 568.800781 984.867188 573.089844 979.613281 573.089844 C 974.363281 573.089844 970.074219 568.800781 970.074219 563.546875 C 970.074219 558.289062 974.363281 554 979.613281 554 C 984.867188 554 989.15625 558.289062 989.15625 563.546875 Z M 989.15625 563.546875 " fill-opacity="1" fill-rule="nonzero"/><path fill="#231f20" d="M 988.296875 427.75 C 976.558594 427.75 966.214844 435.257812 962.464844 446.199219 L 889.464844 446.199219 L 889.464844 463.953125 L 962.464844 463.953125 C 966.214844 474.890625 976.558594 482.402344 988.296875 482.402344 C 1003.359375 482.402344 1015.632812 470.121094 1015.632812 455.050781 C 1015.632812 439.976562 1003.359375 427.75 988.296875 427.75 Z M 997.839844 455.101562 C 997.839844 460.359375 993.550781 464.648438 988.296875 464.648438 C 983.046875 464.648438 978.757812 460.359375 978.757812 455.101562 C 978.757812 449.847656 983.046875 445.554688 988.296875 445.554688 C 993.550781 445.554688 997.839844 449.847656 997.839844 455.101562 Z M 997.839844 455.101562 " fill-opacity="1" fill-rule="nonzero"/><g clip-path="url(#3cdc4ffd17)"><path fill="#231f20" d="M 1064.566406 377.445312 C 1052.828125 377.445312 1042.484375 384.953125 1038.734375 395.894531 L 889.464844 395.894531 L 889.464844 413.644531 L 1038.734375 413.644531 C 1042.484375 424.585938 1052.828125 432.09375 1064.566406 432.09375 C 1079.628906 432.09375 1091.902344 419.8125 1091.902344 404.742188 C 1091.902344 389.671875 1079.628906 377.445312 1064.566406 377.445312 Z M 1074.105469 404.742188 C 1074.105469 410 1069.820312 414.289062 1064.566406 414.289062 C 1059.957031 414.289062 1055.992188 410.910156 1055.1875 406.40625 L 1055.1875 403.027344 C 1055.992188 398.519531 1060.011719 395.144531 1064.566406 395.144531 C 1069.820312 395.195312 1074.105469 399.488281 1074.105469 404.742188 Z M 1074.105469 404.742188 " fill-opacity="1" fill-rule="nonzero"/></g><path fill="#231f20" d="M 905.328125 342.101562 L 889.515625 342.101562 L 889.515625 359.851562 L 905.328125 359.851562 C 909.082031 370.792969 919.425781 378.300781 931.164062 378.300781 C 946.222656 378.300781 958.496094 366.019531 958.496094 350.949219 C 958.496094 335.878906 946.222656 323.597656 931.164062 323.597656 C 919.425781 323.652344 909.082031 331.105469 905.328125 342.101562 Z M 940.703125 350.949219 C 940.703125 356.207031 936.414062 360.496094 931.164062 360.496094 C 925.910156 360.496094 921.621094 356.207031 921.621094 350.949219 C 921.621094 345.695312 925.910156 341.402344 931.164062 341.402344 C 936.414062 341.402344 940.703125 345.695312 940.703125 350.949219 Z M 940.703125 350.949219 " fill-opacity="1" fill-rule="nonzero"/><path fill="#231f20" d="M 888.929688 286.21875 L 889.195312 289.167969 C 889.410156 291.152344 889.464844 293.136719 889.464844 295.121094 L 889.464844 304.023438 L 941.773438 304.023438 L 971.039062 274.738281 C 975.003906 276.886719 979.402344 277.957031 983.902344 277.957031 C 998.964844 277.957031 1011.238281 265.675781 1011.238281 250.605469 C 1011.238281 235.535156 998.964844 223.253906 983.902344 223.253906 C 968.84375 223.253906 956.566406 235.535156 956.566406 250.605469 C 956.566406 254.414062 957.371094 258.167969 958.925781 261.652344 L 934.378906 286.21875 Z M 974.363281 250.660156 C 974.363281 245.402344 978.648438 241.113281 983.902344 241.113281 C 989.15625 241.113281 993.441406 245.402344 993.441406 250.660156 C 993.441406 255.914062 989.15625 260.207031 983.902344 260.207031 C 981.707031 260.207031 979.507812 259.402344 977.792969 258.007812 L 976.558594 256.773438 C 975.167969 255.058594 974.363281 252.859375 974.363281 250.660156 Z M 974.363281 250.660156 " fill-opacity="1" fill-rule="nonzero"/><path fill="#231f20" d="M 550.40625 514.417969 L 550.40625 505.515625 L 505.0625 505.515625 L 471.832031 538.765625 C 468.242188 537.105469 464.273438 536.191406 460.308594 536.191406 C 445.246094 536.191406 432.972656 548.476562 432.972656 563.546875 C 432.972656 578.617188 445.246094 590.898438 460.308594 590.898438 C 475.371094 590.898438 487.644531 578.617188 487.644531 563.546875 C 487.644531 559.199219 486.625 554.964844 484.640625 551.101562 L 512.460938 523.269531 L 550.996094 523.269531 L 550.726562 520.316406 C 550.511719 518.332031 550.40625 516.347656 550.40625 514.417969 Z M 469.847656 563.546875 C 469.847656 568.800781 465.5625 573.089844 460.308594 573.089844 C 455.054688 573.089844 450.769531 568.800781 450.769531 563.546875 C 450.769531 558.289062 455.054688 554 460.308594 554 C 465.5625 554 469.847656 558.289062 469.847656 563.546875 Z M 469.847656 563.546875 " fill-opacity="1" fill-rule="nonzero"/><path fill="#231f20" d="M 477.40625 464.003906 L 550.40625 464.003906 L 550.40625 446.253906 L 477.40625 446.253906 C 473.65625 435.3125 463.308594 427.804688 451.570312 427.804688 C 436.511719 427.804688 424.238281 440.085938 424.238281 455.15625 C 424.238281 470.226562 436.511719 482.507812 451.570312 482.507812 C 463.308594 482.453125 473.65625 474.945312 477.40625 464.003906 Z M 461.167969 455.101562 C 461.167969 460.359375 456.878906 464.648438 451.625 464.648438 C 446.375 464.648438 442.085938 460.359375 442.085938 455.101562 C 442.085938 449.847656 446.375 445.554688 451.625 445.554688 C 456.878906 445.554688 461.167969 449.847656 461.167969 455.101562 Z M 461.167969 455.101562 " fill-opacity="1" fill-rule="nonzero"/><g clip-path="url(#f7c525817f)"><path fill="#231f20" d="M 550.40625 395.894531 L 401.136719 395.894531 C 397.386719 384.953125 387.039062 377.445312 375.304688 377.445312 C 360.242188 377.445312 347.96875 389.726562 347.96875 404.796875 C 347.96875 419.867188 360.242188 432.148438 375.304688 432.148438 C 387.039062 432.148438 397.386719 424.640625 401.136719 413.699219 L 550.40625 413.699219 Z M 384.683594 406.457031 C 383.878906 410.964844 379.859375 414.34375 375.304688 414.34375 C 370.050781 414.34375 365.761719 410.050781 365.761719 404.796875 C 365.761719 399.539062 370.050781 395.25 375.304688 395.25 C 379.914062 395.25 383.878906 398.628906 384.683594 403.132812 Z M 384.683594 406.457031 " fill-opacity="1" fill-rule="nonzero"/></g><path fill="#231f20" d="M 534.542969 359.851562 L 550.351562 359.851562 L 550.351562 342.101562 L 534.542969 342.101562 C 530.789062 331.160156 520.445312 323.652344 508.707031 323.652344 C 493.644531 323.652344 481.371094 335.933594 481.371094 351.003906 C 481.371094 366.074219 493.644531 378.355469 508.707031 378.355469 C 520.445312 378.300781 530.789062 370.792969 534.542969 359.851562 Z M 499.167969 350.949219 C 499.167969 345.695312 503.453125 341.402344 508.707031 341.402344 C 513.960938 341.402344 518.246094 345.695312 518.246094 350.949219 C 518.246094 356.207031 513.960938 360.496094 508.707031 360.496094 C 503.453125 360.550781 499.167969 356.261719 499.167969 350.949219 Z M 499.167969 350.949219 " fill-opacity="1" fill-rule="nonzero"/><path fill="#231f20" d="M 480.890625 261.707031 C 482.445312 258.222656 483.25 254.46875 483.25 250.660156 C 483.25 235.589844 470.972656 223.308594 455.914062 223.308594 C 440.851562 223.308594 428.578125 235.589844 428.578125 250.660156 C 428.578125 265.730469 440.851562 278.011719 455.914062 278.011719 C 460.414062 278.011719 464.863281 276.886719 468.777344 274.792969 L 498.042969 304.078125 L 550.351562 304.078125 L 550.351562 295.171875 C 550.351562 293.1875 550.460938 291.203125 550.621094 289.21875 L 550.886719 286.269531 L 505.332031 286.269531 Z M 465.507812 250.660156 C 465.507812 252.859375 464.703125 255.058594 463.308594 256.773438 L 462.078125 258.007812 C 460.363281 259.457031 458.21875 260.207031 455.96875 260.207031 C 450.714844 260.207031 446.425781 255.914062 446.425781 250.660156 C 446.425781 245.402344 450.714844 241.113281 455.96875 241.113281 C 461.21875 241.058594 465.507812 245.351562 465.507812 250.660156 Z M 465.507812 250.660156 " fill-opacity="1" fill-rule="nonzero"/><path fill="#231f20" d="M 831.632812 231.621094 L 834.582031 231.886719 L 834.582031 195.957031 L 876.921875 153.585938 C 880.246094 154.980469 883.730469 155.679688 887.375 155.679688 C 902.433594 155.679688 914.707031 143.398438 914.707031 128.328125 C 914.707031 113.257812 902.433594 100.972656 887.375 100.972656 C 872.3125 100.972656 860.039062 113.257812 860.039062 128.328125 C 860.039062 133.097656 861.273438 137.710938 863.578125 141.789062 L 816.839844 188.554688 L 816.839844 231.246094 L 825.738281 231.246094 C 827.664062 231.296875 829.648438 231.40625 831.632812 231.621094 Z M 877.78125 128.378906 C 877.78125 123.125 882.066406 118.832031 887.320312 118.832031 C 892.574219 118.832031 896.859375 123.125 896.859375 128.378906 C 896.859375 133.636719 892.574219 137.925781 887.320312 137.925781 C 882.066406 137.925781 877.78125 133.636719 877.78125 128.378906 Z M 877.78125 128.378906 " fill-opacity="1" fill-rule="nonzero"/><path fill="#231f20" d="M 767.207031 213.601562 L 767.207031 231.296875 L 784.949219 231.296875 L 784.949219 213.332031 C 795.667969 209.46875 803.011719 199.171875 803.011719 187.644531 C 803.011719 172.570312 790.738281 160.289062 775.675781 160.289062 C 760.617188 160.289062 748.339844 172.570312 748.339844 187.644531 C 748.394531 199.601562 756.058594 209.953125 767.207031 213.601562 Z M 766.191406 187.644531 C 766.191406 182.386719 770.476562 178.097656 775.730469 178.097656 C 780.984375 178.097656 785.269531 182.386719 785.269531 187.644531 C 785.269531 192.898438 780.984375 197.1875 775.730469 197.1875 C 770.476562 197.1875 766.191406 192.898438 766.191406 187.644531 Z M 766.191406 187.644531 " fill-opacity="1" fill-rule="nonzero"/><g clip-path="url(#141808ad83)"><path fill="#231f20" d="M 711.414062 75.125 L 711.414062 231.351562 L 729.152344 231.351562 L 729.152344 75.125 C 740.085938 71.371094 747.589844 61.019531 747.589844 49.273438 C 747.589844 34.203125 735.316406 21.921875 720.257812 21.921875 C 705.195312 21.921875 692.921875 34.203125 692.921875 49.273438 C 692.976562 61.019531 700.425781 71.316406 711.414062 75.125 Z M 710.714844 49.273438 C 710.714844 44.019531 715.003906 39.726562 720.257812 39.726562 C 725.507812 39.726562 729.796875 44.019531 729.796875 49.273438 C 729.796875 54.53125 725.507812 58.820312 720.257812 58.820312 C 715.003906 58.820312 710.714844 54.53125 710.714844 49.273438 Z M 710.714844 49.273438 " fill-opacity="1" fill-rule="nonzero"/></g><path fill="#231f20" d="M 657.011719 164.367188 L 657.011719 231.296875 L 674.753906 231.296875 L 674.753906 164.367188 C 685.6875 160.613281 693.191406 150.261719 693.191406 138.515625 C 693.191406 123.445312 680.914062 111.164062 665.855469 111.164062 C 650.792969 111.164062 638.519531 123.445312 638.519531 138.515625 C 638.574219 150.261719 646.078125 160.613281 657.011719 164.367188 Z M 656.316406 138.515625 C 656.316406 133.261719 660.601562 128.96875 665.855469 128.96875 C 671.109375 128.96875 675.394531 133.261719 675.394531 138.515625 C 675.394531 143.773438 671.109375 148.0625 665.855469 148.0625 C 660.601562 148.0625 656.316406 143.773438 656.316406 138.515625 Z M 656.316406 138.515625 " fill-opacity="1" fill-rule="nonzero"/><path fill="#231f20" d="M 605.988281 213.492188 L 605.988281 231.886719 L 608.933594 231.621094 C 610.917969 231.40625 612.902344 231.351562 614.882812 231.351562 L 623.78125 231.351562 L 623.78125 213.546875 C 634.714844 209.792969 642.21875 199.441406 642.21875 187.695312 C 642.21875 172.625 629.945312 160.34375 614.882812 160.34375 C 599.824219 160.34375 587.550781 172.625 587.550781 187.695312 C 587.550781 199.386719 595 209.738281 605.988281 213.492188 Z M 605.289062 187.644531 C 605.289062 182.386719 609.578125 178.097656 614.832031 178.097656 C 620.082031 178.097656 624.371094 182.386719 624.371094 187.644531 C 624.371094 192.898438 620.082031 197.1875 614.832031 197.1875 C 609.578125 197.1875 605.289062 192.898438 605.289062 187.644531 Z M 605.289062 187.644531 " fill-opacity="1" fill-rule="nonzero"/><path fill="#231f20" d="M 887.375 654.613281 C 883.730469 654.613281 880.246094 655.308594 876.921875 656.703125 L 834.582031 614.335938 L 834.582031 578.402344 L 831.632812 578.667969 C 829.648438 578.882812 827.664062 578.9375 825.683594 578.9375 L 816.785156 578.9375 L 816.785156 621.628906 L 863.523438 668.394531 C 861.21875 672.46875 859.984375 677.082031 859.984375 681.855469 C 859.984375 696.925781 872.257812 709.207031 887.320312 709.207031 C 902.382812 709.207031 914.65625 696.925781 914.65625 681.855469 C 914.65625 666.894531 902.433594 654.613281 887.375 654.613281 Z M 896.914062 681.964844 C 896.914062 687.21875 892.625 691.511719 887.375 691.511719 C 882.121094 691.511719 877.832031 687.21875 877.832031 681.964844 C 877.832031 676.707031 882.121094 672.417969 887.375 672.417969 C 892.625 672.417969 896.914062 676.707031 896.914062 681.964844 Z M 896.914062 681.964844 " fill-opacity="1" fill-rule="nonzero"/><path fill="#231f20" d="M 785.003906 597.011719 L 785.003906 579.042969 L 767.261719 579.042969 L 767.261719 596.742188 C 756.058594 600.390625 748.449219 610.792969 748.449219 622.699219 C 748.449219 637.769531 760.722656 650.050781 775.785156 650.050781 C 790.84375 650.050781 803.117188 637.769531 803.117188 622.699219 C 803.011719 611.167969 795.722656 600.871094 785.003906 597.011719 Z M 785.269531 622.699219 C 785.269531 627.957031 780.984375 632.246094 775.730469 632.246094 C 770.476562 632.246094 766.191406 627.957031 766.191406 622.699219 C 766.191406 617.445312 770.476562 613.152344 775.730469 613.152344 C 780.984375 613.15625 785.269531 617.445312 785.269531 622.699219 Z M 785.269531 622.699219 " fill-opacity="1" fill-rule="nonzero"/><g clip-path="url(#0d41237557)"><path fill="#231f20" d="M 729.152344 735.21875 L 729.152344 578.992188 L 711.414062 578.992188 L 711.414062 735.21875 C 700.480469 738.972656 692.976562 749.324219 692.976562 761.070312 C 692.976562 776.140625 705.25 788.421875 720.308594 788.421875 C 735.371094 788.421875 747.644531 776.140625 747.644531 761.070312 C 747.589844 749.324219 740.085938 739.027344 729.152344 735.21875 Z M 729.851562 761.070312 C 729.851562 766.324219 725.5625 770.617188 720.308594 770.617188 C 715.058594 770.617188 710.769531 766.324219 710.769531 761.070312 C 710.769531 755.8125 715.058594 751.523438 720.308594 751.523438 C 725.5625 751.523438 729.851562 755.8125 729.851562 761.070312 Z M 729.851562 761.070312 " fill-opacity="1" fill-rule="nonzero"/></g><path fill="#231f20" d="M 674.753906 645.976562 L 674.753906 579.042969 L 657.011719 579.042969 L 657.011719 645.976562 C 646.078125 649.730469 638.574219 660.082031 638.574219 671.828125 C 638.574219 686.898438 650.847656 699.179688 665.910156 699.179688 C 680.96875 699.179688 693.242188 686.898438 693.242188 671.828125 C 693.191406 660.082031 685.738281 649.730469 674.753906 645.976562 Z M 675.449219 671.828125 C 675.449219 677.082031 671.160156 681.375 665.910156 681.375 C 660.65625 681.375 656.367188 677.082031 656.367188 671.828125 C 656.367188 666.570312 660.65625 662.28125 665.910156 662.28125 C 671.160156 662.28125 675.449219 666.570312 675.449219 671.828125 Z M 675.449219 671.828125 " fill-opacity="1" fill-rule="nonzero"/><path fill="#231f20" d="M 623.726562 596.851562 L 623.726562 579.042969 L 614.832031 579.042969 C 612.847656 579.042969 610.863281 578.9375 608.882812 578.777344 L 605.933594 578.507812 L 605.933594 596.902344 C 595 600.660156 587.496094 611.007812 587.496094 622.753906 C 587.496094 637.824219 599.769531 650.105469 614.832031 650.105469 C 629.890625 650.105469 642.164062 637.824219 642.164062 622.753906 C 642.164062 610.957031 634.660156 600.605469 623.726562 596.851562 Z M 624.371094 622.699219 C 624.371094 627.957031 620.082031 632.246094 614.832031 632.246094 C 609.578125 632.246094 605.289062 627.957031 605.289062 622.699219 C 605.289062 617.445312 609.578125 613.152344 614.832031 613.152344 C 620.082031 613.152344 624.371094 617.445312 624.371094 622.699219 Z M 624.371094 622.699219 " fill-opacity="1" fill-rule="nonzero"/></svg>
