<svg xmlns="http://www.w3.org/2000/svg" xmlns:xlink="http://www.w3.org/1999/xlink" width="1920" zoomAndPan="magnify" viewBox="0 0 1440 809.999993" height="1080" preserveAspectRatio="xMidYMid meet" version="1.0"><defs><clipPath id="831c3ee773"><path d="M 673 15.988281 L 728 15.988281 L 728 141 L 673 141 Z M 673 15.988281 " clip-rule="nonzero"/></clipPath><clipPath id="5fae4bb760"><path d="M 745 15.988281 L 800 15.988281 L 800 141 L 745 141 Z M 745 15.988281 " clip-rule="nonzero"/></clipPath><clipPath id="39d5420213"><path d="M 636 15.988281 L 836 15.988281 L 836 69 L 636 69 Z M 636 15.988281 " clip-rule="nonzero"/></clipPath><clipPath id="36e6b4dfe2"><path d="M 348.496094 394 L 619 394 L 619 449 L 348.496094 449 Z M 348.496094 394 " clip-rule="nonzero"/></clipPath></defs><path fill="#000000" d="M 548.789062 207.097656 C 600.082031 165.640625 665.351562 140.789062 736.410156 140.789062 C 901.222656 140.789062 1035.050781 274.527344 1035.050781 439.230469 C 1035.050781 603.929688 901.222656 737.667969 736.410156 737.667969 C 648.046875 737.667969 568.589844 699.214844 513.894531 638.1875 C 503.902344 627.011719 486.707031 626.070312 475.558594 636.054688 C 464.375 646.039062 463.433594 663.222656 473.421875 674.363281 C 538.074219 746.53125 631.976562 791.929688 736.410156 791.929688 C 931.195312 791.929688 1089.347656 633.882812 1089.347656 439.230469 C 1089.347656 244.574219 931.195312 86.527344 736.410156 86.527344 C 652.425781 86.527344 575.25 115.902344 514.652344 164.917969 C 503 174.324219 501.1875 191.433594 510.601562 203.082031 C 520.046875 214.730469 537.132812 216.503906 548.789062 207.097656 Z M 548.789062 207.097656 " fill-opacity="1" fill-rule="evenodd"/><g clip-path="url(#831c3ee773)"><path fill="#000000" d="M 727.359375 113.660156 L 727.359375 41.3125 C 727.359375 26.335938 715.195312 14.179688 700.210938 14.179688 C 685.222656 14.179688 673.0625 26.335938 673.0625 41.3125 L 673.0625 113.660156 C 673.0625 128.636719 685.222656 140.789062 700.210938 140.789062 C 715.195312 140.789062 727.359375 128.636719 727.359375 113.660156 Z M 727.359375 113.660156 " fill-opacity="1" fill-rule="evenodd"/></g><g clip-path="url(#5fae4bb760)"><path fill="#000000" d="M 799.757812 113.660156 L 799.757812 41.3125 C 799.757812 26.335938 787.59375 14.179688 772.609375 14.179688 C 757.621094 14.179688 745.457031 26.335938 745.457031 41.3125 L 745.457031 113.660156 C 745.457031 128.636719 757.621094 140.789062 772.609375 140.789062 C 787.59375 140.789062 799.757812 128.636719 799.757812 113.660156 Z M 799.757812 113.660156 " fill-opacity="1" fill-rule="evenodd"/></g><path fill="#000000" d="M 972.789062 205.179688 L 1024.007812 154.03125 C 1034.578125 143.429688 1034.578125 126.25 1024.007812 115.648438 C 1013.402344 105.085938 996.207031 105.085938 985.601562 115.648438 L 934.417969 166.835938 C 923.8125 177.398438 923.8125 194.617188 934.417969 205.179688 C 944.988281 215.78125 962.21875 215.78125 972.789062 205.179688 Z M 972.789062 205.179688 " fill-opacity="1" fill-rule="evenodd"/><path fill="#000000" d="M 1063.285156 148.75 L 990.886719 76.398438 C 980.316406 65.800781 963.085938 65.800781 952.515625 76.398438 C 941.910156 86.964844 941.910156 104.183594 952.515625 114.746094 L 1024.914062 187.09375 C 1035.484375 197.691406 1052.714844 197.691406 1063.285156 187.09375 C 1073.890625 176.53125 1073.890625 159.3125 1063.285156 148.75 Z M 1063.285156 148.75 " fill-opacity="1" fill-rule="evenodd"/><g clip-path="url(#39d5420213)"><path fill="#000000" d="M 664.011719 68.441406 L 808.808594 68.441406 C 823.792969 68.441406 835.957031 56.289062 835.957031 41.3125 C 835.957031 26.335938 823.792969 14.179688 808.808594 14.179688 L 664.011719 14.179688 C 649.023438 14.179688 636.863281 26.335938 636.863281 41.3125 C 636.863281 56.289062 649.023438 68.441406 664.011719 68.441406 Z M 664.011719 68.441406 " fill-opacity="1" fill-rule="evenodd"/></g><path fill="#000000" d="M 709.257812 240.269531 L 709.257812 421.140625 C 709.257812 428.339844 712.121094 435.25 717.222656 440.316406 L 825.820312 548.839844 C 836.390625 559.4375 853.621094 559.4375 864.191406 548.839844 C 874.796875 538.273438 874.796875 521.054688 864.191406 510.492188 L 763.558594 409.890625 C 763.558594 409.890625 763.558594 240.269531 763.558594 240.269531 C 763.558594 225.292969 751.394531 213.140625 736.410156 213.140625 C 721.421875 213.140625 709.257812 225.292969 709.257812 240.269531 Z M 709.257812 240.269531 " fill-opacity="1" fill-rule="evenodd"/><g clip-path="url(#36e6b4dfe2)"><path fill="#000000" d="M 374.417969 448.273438 L 591.613281 448.273438 C 606.597656 448.273438 618.761719 436.117188 618.761719 421.140625 C 618.761719 406.167969 606.597656 394.011719 591.613281 394.011719 L 374.417969 394.011719 C 359.433594 394.011719 347.269531 406.167969 347.269531 421.140625 C 347.269531 436.117188 359.433594 448.273438 374.417969 448.273438 Z M 374.417969 448.273438 " fill-opacity="1" fill-rule="evenodd"/></g><path fill="#000000" d="M 483.015625 321.664062 L 591.613281 321.664062 C 606.597656 321.664062 618.761719 309.507812 618.761719 294.53125 C 618.761719 279.554688 606.597656 267.402344 591.613281 267.402344 L 483.015625 267.402344 C 468.03125 267.402344 455.867188 279.554688 455.867188 294.53125 C 455.867188 309.507812 468.03125 321.664062 483.015625 321.664062 Z M 483.015625 321.664062 " fill-opacity="1" fill-rule="evenodd"/><path fill="#000000" d="M 483.015625 574.882812 L 591.613281 574.882812 C 606.597656 574.882812 618.761719 562.730469 618.761719 547.753906 C 618.761719 532.777344 606.597656 520.621094 591.613281 520.621094 L 483.015625 520.621094 C 468.03125 520.621094 455.867188 532.777344 455.867188 547.753906 C 455.867188 562.730469 468.03125 574.882812 483.015625 574.882812 Z M 483.015625 574.882812 " fill-opacity="1" fill-rule="evenodd"/></svg>
