<svg xmlns="http://www.w3.org/2000/svg" xmlns:xlink="http://www.w3.org/1999/xlink" width="1920" zoomAndPan="magnify" viewBox="0 0 1440 809.999993" height="1080" preserveAspectRatio="xMidYMid meet" version="1.0"><defs><g/><clipPath id="d95283b792"><path d="M 55.769531 306 L 631.351562 306 L 631.351562 551.988281 L 55.769531 551.988281 Z M 55.769531 306 " clip-rule="nonzero"/></clipPath></defs><g clip-path="url(#d95283b792)"><path fill="#000000" d="M 362.984375 506.777344 C 359.472656 503.847656 354.511719 502.007812 348.996094 502.007812 C 343.480469 502.007812 338.554688 503.847656 335.003906 506.777344 C 331.707031 509.519531 329.65625 513.273438 329.65625 517.375 C 329.65625 521.5 331.707031 525.253906 335.003906 527.996094 C 338.554688 530.929688 343.480469 532.765625 348.996094 532.765625 C 354.511719 532.765625 359.472656 530.929688 362.984375 527.996094 C 366.289062 525.253906 368.339844 521.5 368.339844 517.375 C 368.339844 513.273438 366.289062 509.519531 362.984375 506.777344 Z M 320.753906 505.363281 C 322.355469 502.652344 324.453125 500.171875 326.988281 498.066406 C 332.660156 493.359375 340.46875 490.425781 348.996094 490.425781 C 357.550781 490.425781 365.328125 493.359375 371.007812 498.066406 C 374.46875 500.96875 377.164062 504.511719 378.8125 508.480469 L 378.867188 508.449219 C 377.960938 499.027344 372.523438 490.824219 363.4375 486.910156 C 346.015625 479.375 320.539062 485.046875 320.753906 505.363281 Z M 130.027344 456.425781 C 146.257812 452.1875 154.21875 449.125 156.109375 450.082031 C 158.007812 451.019531 111.460938 463.453125 101.117188 481.078125 C 90.78125 498.679688 98.296875 513.003906 109.832031 519.339844 C 121.34375 525.707031 134.507812 526.875 134.507812 526.875 C 134.507812 526.875 130.800781 528.585938 125.761719 529.785156 C 185.875 543.894531 279.589844 527.488281 279.796875 483.851562 C 280.519531 486.59375 280.894531 489.386719 280.894531 492.238281 C 280.894531 525.230469 230.507812 551.988281 168.34375 551.988281 C 106.15625 551.988281 55.769531 525.230469 55.769531 492.238281 C 55.769531 459.214844 106.15625 432.457031 168.34375 432.457031 C 256.296875 432.457031 75.242188 429.394531 76.449219 489.601562 C 76.632812 498.707031 80.921875 506.402344 88.144531 512.710938 C 86.515625 509.886719 85.292969 506.882812 84.546875 503.847656 C 78.738281 479.933594 110.921875 461.402344 130.027344 456.425781 Z M 146.042969 355.957031 C 145.320312 355.023438 144.660156 354.039062 144.121094 352.949219 C 139.410156 343.203125 144.765625 334.171875 159.765625 328.210938 C 174.765625 322.269531 190.722656 321.84375 191.472656 322.644531 C 192.21875 323.472656 158.617188 330.761719 153.929688 340.246094 C 152.035156 344.054688 151.183594 348.417969 154.117188 352.226562 C 159.5 359.253906 173.378906 362.933594 177.964844 365.167969 C 194.058594 367.511719 212.253906 367.992188 228.054688 367.378906 C 224.832031 366.234375 222.429688 365.25 221.261719 364.582031 C 219.210938 363.410156 217.425781 361.757812 215.984375 359.953125 C 210.097656 362.402344 201.726562 360.507812 199.734375 354.277344 C 198.851562 351.589844 202.289062 332.390625 203.410156 331.722656 C 204.929688 330.871094 216.359375 330.871094 217.851562 331.722656 C 218.730469 332.257812 221.074219 344.347656 221.578125 350.738281 C 238.738281 354.410156 277.773438 365.007812 291.523438 365.753906 C 300.929688 366.257812 310.257812 364.636719 316.808594 363.039062 C 322.886719 349.40625 327.949219 339.316406 330 337.289062 C 331.914062 335.371094 335.726562 334.386719 339.539062 334.066406 C 343.082031 333.773438 347.34375 333.960938 349.503906 334.464844 C 351.6875 333.960938 355.953125 333.773438 359.496094 334.066406 C 363.304688 334.386719 367.117188 335.371094 369.03125 337.289062 C 371.085938 339.316406 376.09375 349.351562 382.167969 362.933594 C 388.113281 363.96875 395.144531 364.714844 402.207031 364.367188 C 415.449219 363.675781 451.207031 354.570312 470.6875 350.285156 C 471.109375 344.054688 473.539062 331.324219 474.46875 330.792969 C 475.960938 329.941406 487.394531 329.941406 488.882812 330.792969 C 490.03125 331.460938 493.441406 350.652344 492.589844 353.347656 C 490.9375 358.402344 485.074219 360.613281 479.769531 359.921875 C 478.519531 361.175781 477.082031 362.320312 475.507812 363.171875 C 473.800781 364.128906 469.617188 365.648438 463.941406 367.433594 C 480.222656 367.992188 498.796875 367.351562 514.941406 364.796875 C 520.214844 362.503906 532.847656 358.855469 537.90625 352.226562 C 540.839844 348.417969 540.011719 344.054688 538.121094 340.246094 C 533.433594 330.761719 499.804688 323.472656 500.582031 322.644531 C 501.328125 321.84375 517.289062 322.269531 532.289062 328.210938 C 547.289062 334.171875 552.644531 343.203125 547.898438 352.949219 C 547.742188 353.292969 547.558594 353.640625 547.34375 353.984375 C 552.507812 350.335938 555.574219 345.8125 555.574219 340.269531 C 555.574219 306.078125 395.972656 301.738281 393.441406 340.269531 C 393.441406 340.90625 393.492188 341.523438 393.625 342.160156 L 393.625 342.136719 C 389.789062 329.992188 393.839844 325.492188 403.269531 319.792969 C 440.546875 297.269531 569.914062 300.941406 569.914062 341.207031 C 569.914062 375.050781 489.5 379.230469 442.652344 373.636719 C 425.679688 378.191406 406.628906 382.585938 396.660156 383.382812 C 394.613281 383.542969 392.773438 383.675781 391.121094 383.753906 C 393.65625 389.828125 396.214844 396.132812 398.6875 402.367188 C 401.863281 410.460938 404.953125 418.53125 407.671875 426.015625 L 481.898438 467.6875 C 481.898438 467.6875 483.3125 471.441406 485.65625 478.015625 C 486.726562 481 491.148438 485.792969 495.515625 490.210938 C 496.953125 483.714844 499.273438 476.550781 500.3125 476.15625 C 502.6875 475.21875 520.882812 475.21875 523.253906 476.15625 C 525.066406 476.847656 530.527344 497.429688 529.144531 500.304688 C 524.558594 509.886719 499.035156 509.886719 494.449219 500.304688 C 494.210938 499.851562 494.1875 498.917969 494.265625 497.691406 C 488.617188 495.832031 482.835938 493.753906 482.835938 493.753906 L 417.902344 459.40625 C 417.953125 459.859375 418.007812 460.257812 418.03125 460.628906 C 418.277344 463.132812 415.847656 476.894531 412.167969 489.308594 C 411.613281 491.222656 411.023438 493.113281 410.386719 494.980469 C 426.929688 528.847656 507.613281 540.675781 561.40625 528.050781 C 556.347656 526.851562 552.644531 525.121094 552.644531 525.121094 C 552.644531 525.121094 565.808594 523.949219 577.316406 517.613281 C 588.828125 511.277344 596.339844 496.945312 586.003906 479.351562 C 575.664062 461.71875 529.144531 449.285156 531.007812 448.324219 C 532.902344 447.394531 540.894531 450.457031 557.09375 454.691406 C 576.222656 459.667969 608.382812 478.199219 602.574219 502.089844 C 601.859375 505.152344 600.605469 508.160156 598.984375 510.980469 C 606.199219 504.671875 610.488281 496.976562 610.679688 487.867188 C 611.664062 438.902344 499.488281 431.660156 498.316406 431.710938 C 537.589844 427.878906 631.351562 439.675781 631.351562 490.480469 C 631.351562 523.496094 580.964844 550.257812 518.808594 550.257812 C 463.570312 550.257812 417.632812 529.140625 408.070312 501.261719 C 406.679688 504.695312 405.191406 507.707031 403.644531 509.941406 C 401.085938 513.726562 397.035156 516.414062 392.429688 518.332031 C 388.589844 519.925781 384.25 520.992188 380.175781 521.714844 C 379.054688 527.542969 375.773438 532.734375 371.007812 536.703125 C 365.328125 541.417969 357.550781 544.347656 348.996094 544.347656 C 340.46875 544.347656 332.660156 541.417969 326.988281 536.703125 C 322.324219 532.816406 319.074219 527.757812 317.90625 522.058594 C 314.253906 521.367188 311.558594 520.277344 307.136719 518.519531 C 307.003906 518.492188 306.871094 518.441406 306.761719 518.386719 C 302.074219 516.46875 297.972656 513.75 295.386719 509.941406 C 292.191406 505.285156 289.234375 497.40625 286.859375 489.308594 C 283.183594 476.894531 280.757812 463.132812 280.972656 460.628906 C 281.132812 458.976562 281.585938 456.742188 282.277344 454 L 207.113281 493.753906 C 207.113281 493.753906 201.359375 495.832031 195.710938 497.691406 C 195.761719 498.757812 195.710938 499.558594 195.523438 500.011719 C 190.9375 509.996094 165.386719 509.996094 160.804688 500.011719 C 159.445312 496.976562 164.878906 475.488281 166.691406 474.765625 C 169.066406 473.8125 187.261719 473.8125 189.632812 474.765625 C 190.722656 475.191406 193.125 483.152344 194.5625 490.078125 C 198.875 485.6875 203.25 480.972656 204.285156 478.015625 C 206.628906 471.441406 208.042969 467.6875 208.042969 467.6875 L 293.734375 419.59375 C 295.8125 414.003906 298.050781 408.199219 300.34375 402.367188 C 302.605469 396.667969 304.957031 390.886719 307.269531 385.296875 C 304.632812 385.296875 301.222656 385.164062 296.824219 384.796875 C 286.300781 383.890625 265.144531 378.667969 247.773438 373.609375 C 200.957031 379.253906 120.382812 375.074219 120.382812 341.207031 C 120.382812 300.941406 249.746094 297.269531 287.042969 319.792969 C 296.449219 325.492188 300.5 329.992188 296.664062 342.136719 L 296.664062 342.160156 C 296.796875 341.523438 296.878906 340.90625 296.878906 340.269531 C 294.320312 301.738281 134.714844 306.078125 134.714844 340.269531 C 134.714844 346.851562 139.011719 351.988281 146.042969 355.957031 Z M 197.414062 524.507812 C 222.460938 521.152344 259.253906 501.738281 260.324219 473.707031 C 277.269531 512.765625 225.734375 526.398438 197.414062 524.507812 Z M 501.140625 524.507812 C 476.066406 521.152344 439.269531 501.738281 438.203125 473.707031 C 421.257812 512.765625 472.816406 526.398438 501.140625 524.507812 Z M 342.972656 347.140625 C 342.257812 347.195312 341.453125 347.25 340.628906 347.328125 C 339.460938 347.433594 339.855469 346.207031 339.300781 346.742188 C 336.714844 349.300781 324.109375 378.375 312.734375 407.214844 C 303.246094 431.285156 294.851562 454.691406 294.214844 461.828125 C 294.136719 462.492188 294.535156 464.914062 295.226562 468.324219 C 300.851562 471.441406 311.773438 475.832031 330.957031 477.5625 C 362.210938 480.363281 390.640625 472.613281 390.886719 470.027344 C 391.097656 467.445312 337.300781 473.8125 323.898438 460.175781 C 311.800781 447.871094 335.964844 367.109375 342.972656 347.140625 " fill-opacity="1" fill-rule="nonzero"/></g><g fill="#000000" fill-opacity="1"><g transform="translate(606.023076, 536.973633)"><g><path d="M 147.6875 -224.84375 L 99.390625 -82.015625 L 99.390625 0 L 50.734375 0 L 50.734375 -82.015625 L 2.4375 -224.84375 L 48.296875 -224.84375 L 75.0625 -131.015625 L 101.828125 -224.84375 Z M 147.6875 -224.84375 "/></g></g></g><g fill="#000000" fill-opacity="1"><g transform="translate(757.189264, 536.973633)"><g><path d="M 104.953125 -224.84375 C 133.679688 -224.84375 148.046875 -209.550781 148.046875 -178.96875 L 148.046875 -134.140625 C 148.046875 -103.554688 133.679688 -88.265625 104.953125 -88.265625 L 65.6875 -88.265625 L 65.6875 0 L 17.03125 0 L 17.03125 -224.84375 Z M 99.390625 -128.578125 L 99.390625 -184.53125 C 99.390625 -186.382812 98.75 -188.003906 97.46875 -189.390625 C 96.195312 -190.785156 94.632812 -191.484375 92.78125 -191.484375 L 65.6875 -191.484375 L 65.6875 -121.625 L 92.78125 -121.625 C 94.632812 -121.625 96.195312 -122.316406 97.46875 -123.703125 C 98.75 -125.097656 99.390625 -126.722656 99.390625 -128.578125 Z M 99.390625 -128.578125 "/></g></g></g><g fill="#000000" fill-opacity="1"><g transform="translate(912.178016, 536.973633)"><g><path d="M 66.03125 -88.265625 L 66.03125 0 L 17.375 0 L 17.375 -224.84375 L 66.03125 -224.84375 L 66.03125 -130.671875 L 104.609375 -130.671875 L 104.609375 -224.84375 L 153.25 -224.84375 L 153.25 0 L 104.609375 0 L 104.609375 -88.265625 Z M 66.03125 -88.265625 "/></g></g></g><g fill="#000000" fill-opacity="1"><g transform="translate(1082.804707, 536.973633)"><g><path d="M 66.03125 -40.3125 L 119.890625 -40.3125 L 119.890625 0 L 17.375 0 L 17.375 -224.84375 L 119.890625 -224.84375 L 119.890625 -185.21875 L 66.03125 -185.21875 L 66.03125 -132.40625 L 116.421875 -132.40625 L 116.421875 -94.171875 L 66.03125 -94.171875 Z M 66.03125 -40.3125 "/></g></g></g><g fill="#000000" fill-opacity="1"><g transform="translate(1213.46795, 536.973633)"><g><path d="M 66.03125 -92.09375 L 66.03125 0 L 17.375 0 L 17.375 -224.84375 L 103.90625 -224.84375 C 132.632812 -224.84375 147 -209.550781 147 -178.96875 L 147 -152.90625 C 147 -134.375 140.394531 -122.554688 127.1875 -117.453125 C 138.769531 -113.285156 144.5625 -103.789062 144.5625 -88.96875 L 144.5625 0 L 95.921875 0 L 95.921875 -85.140625 C 95.921875 -89.773438 93.71875 -92.09375 89.3125 -92.09375 Z M 66.03125 -191.828125 L 66.03125 -126.140625 L 91.75 -126.140625 C 93.601562 -126.140625 95.164062 -126.832031 96.4375 -128.21875 C 97.707031 -129.613281 98.34375 -131.238281 98.34375 -133.09375 L 98.34375 -184.875 C 98.34375 -186.726562 97.707031 -188.347656 96.4375 -189.734375 C 95.164062 -191.128906 93.601562 -191.828125 91.75 -191.828125 Z M 66.03125 -191.828125 "/></g></g></g></svg>
